<svg width="14" height="14" viewBox="0 0 14 14" fill="none" xmlns="http://www.w3.org/2000/svg">
<path d="M1.22646 10.3335C0.944643 9.84612 0.725573 9.3251 0.574463 8.78279C0.903334 8.61553 1.17953 8.36054 1.37248 8.04606C1.56544 7.73157 1.66764 7.36983 1.66778 7.00087C1.66792 6.6319 1.56599 6.27009 1.37326 5.95546C1.18054 5.64083 0.904543 5.38564 0.575796 5.21813C0.877154 4.12845 1.45095 3.13343 2.24313 2.32679C2.55252 2.52794 2.91154 2.63957 3.28045 2.64931C3.64935 2.65906 4.01376 2.56655 4.33335 2.38201C4.65293 2.19748 4.91523 1.92812 5.09121 1.60375C5.2672 1.27938 5.35 0.912643 5.33046 0.544126C6.4252 0.261207 7.57395 0.261666 8.66846 0.545459C8.6491 0.913969 8.73207 1.28065 8.90818 1.60493C9.0843 1.92921 9.3467 2.19844 9.66635 2.38283C9.986 2.56722 10.3504 2.65958 10.7193 2.64969C11.0882 2.6398 11.4472 2.52805 11.7565 2.32679C12.1425 2.72013 12.4851 3.16746 12.7731 3.66679C13.0618 4.16613 13.2778 4.68679 13.4251 5.21746C13.0963 5.38473 12.8201 5.63971 12.6271 5.9542C12.4342 6.26868 12.332 6.63042 12.3318 6.99938C12.3317 7.36835 12.4336 7.73016 12.6263 8.04479C12.819 8.35942 13.095 8.61461 13.4238 8.78213C13.1224 9.8718 12.5486 10.8668 11.7565 11.6735C11.4471 11.4723 11.088 11.3607 10.7191 11.3509C10.3502 11.3412 9.98583 11.4337 9.66624 11.6182C9.34666 11.8028 9.08436 12.0721 8.90838 12.3965C8.7324 12.7209 8.64959 13.0876 8.66913 13.4561C7.57439 13.739 6.42564 13.7386 5.33113 13.4548C5.35049 13.0863 5.26753 12.7196 5.09141 12.3953C4.91529 12.071 4.65289 11.8018 4.33324 11.6174C4.0136 11.433 3.64917 11.3407 3.28028 11.3506C2.91139 11.3604 2.55244 11.4722 2.24313 11.6735C1.84912 11.2714 1.50753 10.8212 1.22646 10.3335ZM4.9998 10.4641C5.71021 10.8739 6.24436 11.5315 6.4998 12.3108C6.83246 12.3421 7.16646 12.3428 7.49913 12.3115C7.75473 11.532 8.28913 10.8744 8.9998 10.4648C9.70994 10.0539 10.5468 9.91978 11.3498 10.0881C11.5431 9.81613 11.7098 9.52613 11.8485 9.22279C11.3014 8.61175 10.9992 7.82027 10.9998 7.00013C10.9998 6.16013 11.3131 5.37546 11.8485 4.77746C11.7088 4.47423 11.5414 4.18455 11.3485 3.91213C10.546 4.08033 9.70966 3.94644 8.9998 3.53613C8.28938 3.12637 7.75523 2.46878 7.4998 1.68946C7.16713 1.65813 6.83313 1.65746 6.50046 1.68879C6.24486 2.46822 5.71046 3.12583 4.9998 3.53546C4.28965 3.94634 3.45278 4.08047 2.6498 3.91213C2.45684 4.18432 2.28988 4.47403 2.15113 4.77746C2.69818 5.3885 3.00039 6.17999 2.9998 7.00013C2.9998 7.84013 2.68646 8.62479 2.15113 9.22279C2.29078 9.52603 2.45816 9.8157 2.65113 10.0881C3.45361 9.91992 4.28993 10.0538 4.9998 10.4641ZM6.9998 9.00013C6.46936 9.00013 5.96065 8.78941 5.58558 8.41434C5.21051 8.03927 4.9998 7.53056 4.9998 7.00013C4.9998 6.46969 5.21051 5.96099 5.58558 5.58591C5.96065 5.21084 6.46936 5.00013 6.9998 5.00013C7.53023 5.00013 8.03894 5.21084 8.41401 5.58591C8.78908 5.96099 8.9998 6.46969 8.9998 7.00013C8.9998 7.53056 8.78908 8.03927 8.41401 8.41434C8.03894 8.78941 7.53023 9.00013 6.9998 9.00013ZM6.9998 7.66679C7.17661 7.66679 7.34618 7.59655 7.4712 7.47153C7.59622 7.34651 7.66646 7.17694 7.66646 7.00013C7.66646 6.82332 7.59622 6.65375 7.4712 6.52872C7.34618 6.4037 7.17661 6.33346 6.9998 6.33346C6.82299 6.33346 6.65342 6.4037 6.52839 6.52872C6.40337 6.65375 6.33313 6.82332 6.33313 7.00013C6.33313 7.17694 6.40337 7.34651 6.52839 7.47153C6.65342 7.59655 6.82299 7.66679 6.9998 7.66679Z" fill="#009EF8"/>
</svg>
