<svg width="87" height="135" viewBox="0 0 87 135" fill="none" xmlns="http://www.w3.org/2000/svg">
<path d="M32.6667 33.5484C46.8999 33.5484 60.5503 39.2025 70.6147 49.267C80.6792 59.3314 86.3333 72.9818 86.3333 87.215C86.3333 101.448 80.6792 115.099 70.6147 125.163C60.5503 135.228 46.8999 140.882 32.6667 140.882C18.4334 140.882 4.78305 135.228 -5.2814 125.163C-15.3458 115.099 -21 101.448 -21 87.215C-21 72.9818 -15.3458 59.3314 -5.2814 49.267C4.78305 39.2025 18.4334 33.5484 32.6667 33.5484ZM32.6667 46.965C21.9917 46.965 11.754 51.2057 4.20562 58.754C-3.34272 66.3023 -7.58333 76.5401 -7.58333 87.215C-7.58333 97.89 -3.34272 108.128 4.20562 115.676C11.754 123.224 21.9917 127.465 32.6667 127.465C43.3416 127.465 53.5794 123.224 61.1277 115.676C68.676 108.128 72.9167 97.89 72.9167 87.215C72.9167 76.5401 68.676 66.3023 61.1277 58.754C53.5794 51.2057 43.3416 46.965 32.6667 46.965ZM32.6667 57.0275L41.5418 75.0059L61.3783 77.8905L47.0225 91.8773L50.4102 111.64L32.6667 102.309L14.9231 111.633L18.3108 91.8773L3.955 77.8838L23.7915 74.9992L32.6667 57.0275ZM72.9167 0.00670865V20.1317L63.7732 27.7658C56.1857 23.7849 47.9017 21.3045 39.375 20.4604V0.00670865H72.9167ZM25.9583 0V20.4604C17.4344 21.3033 9.15277 23.7814 1.56683 27.7591L-7.58333 20.1317V0.00670865L25.9583 0Z" fill="white" fill-opacity="0.25"/>
</svg>
