<svg width="240" height="140" viewBox="0 0 240 140" fill="none" xmlns="http://www.w3.org/2000/svg">
<path d="M0 74.8296L240 74.8296" stroke="white" stroke-dasharray="4 4"/>
<path d="M0 121C7.67591 121 8.66487 110.881 32.2388 102.088C53.2196 94.2616 52.7079 66.8709 64.9893 66.8709C77.2708 66.8709 77.2708 99.4792 91.0874 102.088C108.505 105.376 104.16 7.86263 125.373 38.8286C153.518 79.9137 155.053 22.5234 167.335 27.7413C179.616 32.9592 185.544 3.42733 199.062 9.4805C217.996 17.9587 229.765 1.00255 240 1" stroke="white" stroke-width="2"/>
<path d="M0 139C7.16418 139 8.66487 127.702 32.2388 119.003C53.2196 111.261 52.7079 84.164 64.9893 84.164C77.2708 84.164 77.2708 116.422 91.0874 119.003C108.505 122.256 104.16 25.789 125.373 56.4226C153.518 97.0669 155.053 40.2924 167.335 45.4543C179.616 50.6163 185.544 21.4013 199.062 27.3895C217.996 35.7767 229.765 19.0025 240 19" stroke="url(#paint0_linear_305_265)" stroke-opacity="0.2" stroke-width="2"/>
<circle cx="154" cy="44" r="8" fill="white" fill-opacity="0.5"/>
<circle cx="154" cy="44" r="4" fill="white"/>
<defs>
<linearGradient id="paint0_linear_305_265" x1="-9.70213" y1="32.7288" x2="239.771" y2="119.827" gradientUnits="userSpaceOnUse">
<stop stop-color="#1D95A8"/>
<stop offset="1" stop-color="#0A518F"/>
</linearGradient>
</defs>
</svg>
