<svg width="16" height="19" viewBox="0 0 16 19" fill="none" xmlns="http://www.w3.org/2000/svg">
<path d="M8 16.5271L12.4 12.1985C13.2701 11.3424 13.8627 10.2517 14.1027 9.06438C14.3427 7.87701 14.2195 6.64628 13.7485 5.52782C13.2776 4.40936 12.48 3.45341 11.4568 2.78083C10.4336 2.10826 9.23061 1.74928 8 1.74928C6.76939 1.74928 5.56641 2.10826 4.54319 2.78083C3.51996 3.45341 2.72244 4.40936 2.25148 5.52782C1.78052 6.64628 1.65726 7.87701 1.89729 9.06438C2.13733 10.2517 2.72987 11.3424 3.6 12.1985L8 16.5271ZM8 19L2.34311 13.435C1.2243 12.3343 0.462388 10.932 0.153714 9.40539C-0.15496 7.87875 0.00347275 6.29635 0.608976 4.85829C1.21448 3.42023 2.23986 2.19111 3.55545 1.32634C4.87104 0.461568 6.41775 0 8 0C9.58225 0 11.129 0.461568 12.4445 1.32634C13.7601 2.19111 14.7855 3.42023 15.391 4.85829C15.9965 6.29635 16.155 7.87875 15.8463 9.40539C15.5376 10.932 14.7757 12.3343 13.6569 13.435L8 19ZM8 9.61889C8.4715 9.61889 8.92368 9.43463 9.25708 9.10665C9.59048 8.77867 9.77778 8.33383 9.77778 7.86999C9.77778 7.40615 9.59048 6.96131 9.25708 6.63333C8.92368 6.30535 8.4715 6.12109 8 6.12109C7.5285 6.12109 7.07632 6.30535 6.74292 6.63333C6.40952 6.96131 6.22222 7.40615 6.22222 7.86999C6.22222 8.33383 6.40952 8.77867 6.74292 9.10665C7.07632 9.43463 7.5285 9.61889 8 9.61889ZM8 11.3678C7.05701 11.3678 6.15264 10.9993 5.48584 10.3433C4.81905 9.68734 4.44445 8.79766 4.44445 7.86999C4.44445 6.94231 4.81905 6.05263 5.48584 5.39667C6.15264 4.7407 7.05701 4.37219 8 4.37219C8.94299 4.37219 9.84736 4.7407 10.5142 5.39667C11.181 6.05263 11.5556 6.94231 11.5556 7.86999C11.5556 8.79766 11.181 9.68734 10.5142 10.3433C9.84736 10.9993 8.94299 11.3678 8 11.3678Z" fill="#009EF8" fill-opacity="0.5"/>
</svg>
