<svg width="545" height="472" viewBox="0 0 545 472" fill="none" xmlns="http://www.w3.org/2000/svg">
<path opacity="0.15" d="M167.433 210.7C208.199 226.99 210.282 204.481 221.181 201.86C247.11 195.641 239.555 229.277 246.056 240.478C250.868 248.763 256.881 256.306 261.614 264.638C266.346 272.97 269.81 282.452 268.835 291.994C266.833 311.387 247.684 325.002 243.373 344.013C240.703 355.916 243.7 369.952 235.797 379.24C229.657 386.455 219.212 387.826 209.768 388.361C197.754 389.043 185.705 389.179 173.62 388.769C157.996 388.241 141.911 386.656 128.122 379.273C119.872 374.86 112.804 368.574 104.995 363.385C97.1863 358.196 88.0826 354.13 78.772 355.026C73.8932 355.494 69.1544 357.32 64.2555 357.166C55.579 356.892 48.3441 350.533 42.2705 344.274C27.3869 328.94 13.8848 311.313 8.51205 290.61C4.5797 275.326 5.27672 259.215 10.5143 244.329C13.6779 235.409 19.6581 232.019 25.151 225.191C30.5238 218.504 37.2181 213.629 42.5041 206.822C107.224 123.736 157.235 206.655 167.433 210.7Z" fill="#68E1FD"/>
<path d="M267.627 346.362H31.5859V193.417C31.5859 192.93 31.7794 192.463 32.1238 192.118C32.4682 191.774 32.9353 191.581 33.4223 191.581C33.9093 191.581 34.3764 191.774 34.7208 192.118C35.0652 192.463 35.2587 192.93 35.2587 193.417V342.689H267.627C268.114 342.689 268.581 342.883 268.925 343.227C269.27 343.572 269.463 344.039 269.463 344.526C269.463 345.013 269.27 345.48 268.925 345.824C268.581 346.169 268.114 346.362 267.627 346.362Z" fill="#68E1FD"/>
<path d="M267.627 346.362H31.5859V193.417C31.5859 192.93 31.7794 192.463 32.1238 192.118C32.4682 191.774 32.9353 191.581 33.4223 191.581C33.9093 191.581 34.3764 191.774 34.7208 192.118C35.0652 192.463 35.2587 192.93 35.2587 193.417V342.689H267.627C268.114 342.689 268.581 342.883 268.925 343.227C269.27 343.572 269.463 344.039 269.463 344.526C269.463 345.013 269.27 345.48 268.925 345.824C268.581 346.169 268.114 346.362 267.627 346.362Z" fill="url(#paint0_linear_305_265)"/>
<path d="M120.493 304C114.202 304 108.602 301.737 103.516 297.155C97.781 291.993 93.2935 284.441 88.9589 277.134C83.1509 267.354 77.1472 257.243 68.643 254.083C62.6149 251.844 56.7274 251.796 51.1395 253.945C48.5036 254.974 46.2046 256.327 44.3716 257.926C44.2363 258.056 44.0628 258.167 43.861 258.253C43.6592 258.34 43.4331 258.4 43.1955 258.429C42.9579 258.459 42.7135 258.459 42.4763 258.428C42.2391 258.396 42.0137 258.335 41.813 258.248C41.6123 258.161 41.4402 258.049 41.3065 257.918C41.1729 257.788 41.0803 257.642 41.034 257.488C40.9877 257.335 40.9887 257.177 41.0369 257.024C41.085 256.87 41.1795 256.725 41.3148 256.595C41.4309 256.484 53.1509 245.603 70.4466 252.029C80.0818 255.608 86.0427 265.652 92.3581 276.289C101.058 290.938 109.275 304.778 125.984 300.971C143.921 296.883 153.997 284.433 162.892 273.449C169.214 265.636 174.673 258.886 182.095 255.991C198.926 249.422 211.661 259.257 220.08 265.766C221.046 266.509 221.957 267.212 222.825 267.856C228.816 272.303 243.642 276.107 243.795 276.15C244.025 276.205 244.236 276.288 244.415 276.396C244.594 276.503 244.738 276.633 244.839 276.777C244.939 276.922 244.994 277.077 244.999 277.236C245.005 277.394 244.962 277.551 244.872 277.698C244.782 277.845 244.648 277.979 244.477 278.092C244.305 278.205 244.101 278.295 243.875 278.356C243.649 278.417 243.407 278.449 243.162 278.448C242.917 278.448 242.675 278.416 242.45 278.354C241.808 278.192 226.64 274.302 220.055 269.416C219.163 268.752 218.221 268.041 217.267 267.291C208.745 260.703 198.131 252.507 183.99 258.025C177.455 260.572 171.952 267.358 166.138 274.539C156.937 285.91 146.501 298.798 127.206 303.198C125.055 303.71 122.785 303.981 120.493 304Z" fill="white"/>
<path d="M242.5 331.908C242.597 334.704 242.75 336.462 242.988 336.614C243.031 336.645 242.847 336.673 242.445 336.696C241.669 336.747 240.095 336.786 237.824 336.825C225.691 337.016 193.8 337.027 159.187 336.969C134.974 336.93 109.431 336.856 88.3865 336.786C61.5312 336.7 42 336.614 42 336.614V265.056C42 265.056 51.552 252.717 67.5675 258.581C85.9939 265.333 91.5542 314.134 127.052 307.338C158.79 301.268 168.263 268.807 185.139 261.82C199.464 255.89 210.346 267.131 219.264 273.306C227.399 278.944 243 282.347 243 282.347C243 282.347 242.701 294.215 242.518 306.855C242.377 316.337 242.316 326.247 242.5 331.908Z" fill="url(#paint1_linear_305_265)"/>
<path opacity="0.44" d="M88.3534 336.568C61.42 336.433 41.832 336.299 41.832 336.299V311.551C41.832 311.551 51.3995 292.177 67.4617 301.383C76.0314 306.311 81.4487 322.128 88.3534 336.568Z" fill="url(#paint2_linear_305_265)"/>
<path d="M74.6838 233.212L73.6126 237.368C73.5269 237.711 72.1741 238.06 72.2598 238.403C72.7148 239.036 73.2248 239.628 73.7839 240.172C78.8401 246.121 83.5779 252.683 85.3286 260.286C85.3813 260.817 85.6354 261.308 86.0387 261.657C86.4472 261.851 86.9112 261.895 87.3486 261.78C90.738 261.261 93.9832 260.046 96.8794 258.211C97.276 257.994 97.6207 257.693 97.8894 257.329C98.4158 256.515 98.1404 255.438 97.8282 254.52C96.7319 251.232 95.4358 248.015 93.9473 244.885C93.4239 243.915 93.0132 242.888 92.7231 241.824C92.4964 240.451 92.484 239.051 92.6863 237.674L93.0291 234.001C93.0778 233.704 93.0548 233.4 92.9618 233.114C92.8474 232.892 92.6891 232.697 92.4966 232.538L89.436 229.631L87.165 235.281C86.969 235.901 86.6219 236.462 86.155 236.915C84.9307 237.901 81.8701 237.95 80.352 237.527C78.1851 236.891 76.2263 234.693 74.6838 233.212Z" fill="#FB8E36" fill-opacity="0.65"/>
<path opacity="0.36" d="M87.9244 234.822C87.6871 235.008 87.4202 235.153 87.1348 235.25C87.8938 233.365 88.6508 231.484 89.4057 229.606L90.1036 230.268L88.9283 233.187C88.7369 233.808 88.3916 234.37 87.9244 234.822Z" fill="url(#paint3_linear_305_265)"/>
<path opacity="0.36" d="M98.1649 256.454C98.1452 256.765 98.0484 257.065 97.8833 257.329C97.6146 257.693 97.2699 257.994 96.8733 258.211C93.9771 260.046 90.7319 261.261 87.3425 261.779C86.9051 261.895 86.4411 261.851 86.0326 261.657C85.6293 261.308 85.3752 260.817 85.3225 260.286C83.5473 252.683 78.834 246.121 73.784 240.171C73.2217 239.631 72.7114 239.038 72.2598 238.402C72.1741 238.06 73.5208 237.711 73.6126 237.368C73.7656 236.756 73.888 236.291 73.9982 235.844C74.0072 236.008 74.0256 236.171 74.0533 236.333C74.5066 236.968 75.0168 237.56 75.5775 238.102C80.6336 244.052 85.3715 250.62 87.1221 258.217C87.1705 258.749 87.4254 259.241 87.8322 259.588C88.2407 259.782 88.7047 259.826 89.1421 259.71C92.333 259.223 95.398 258.117 98.1649 256.454Z" fill="url(#paint4_linear_305_265)"/>
<path d="M87.2995 230.629C87.3128 232.098 87.0297 233.556 86.467 234.913C86.3201 235.22 85.9589 235.342 85.6345 235.581C85.3972 235.754 85.2137 235.99 85.1054 236.263C84.9971 236.536 84.9683 236.835 85.0224 237.123C85.0587 237.365 85.1487 237.595 85.2856 237.797C85.3653 237.896 85.4151 238.016 85.4292 238.143C85.4433 238.27 85.4211 238.398 85.3651 238.513C85.1334 238.844 84.7946 239.086 84.4056 239.198C84.0166 239.309 83.6011 239.284 83.2288 239.125C82.0046 238.69 81.2945 237.417 80.8415 236.193C80.2638 234.495 79.8959 232.734 79.7458 230.947C79.5745 229.337 81.0742 227.819 82.5249 227.378C83.1587 227.191 83.8281 227.159 84.4768 227.285C85.1256 227.411 85.7346 227.69 86.2527 228.101C86.7139 228.45 87.0525 228.936 87.2199 229.49C87.3056 229.863 87.3324 230.247 87.2995 230.629Z" fill="url(#paint5_linear_305_265)"/>
<path d="M74.5672 233.658C74.5672 233.658 64.0693 226.417 63.9163 226.441C63.7633 226.466 63.8673 222.616 63.8673 222.616C63.8673 222.616 62.8022 222.408 62.8206 223.797C62.7757 223.925 62.6964 224.039 62.5913 224.125C62.4862 224.212 62.3593 224.267 62.2246 224.286C62.09 224.305 61.9527 224.287 61.8278 224.233C61.703 224.179 61.5953 224.092 61.5168 223.981L59.7416 221.532C59.7416 221.532 59.1295 221.777 59.1785 222.242C59.4701 223.004 59.8264 223.739 60.2436 224.44L58.1072 222.72C58.0193 222.748 57.938 222.794 57.8679 222.854C57.7979 222.914 57.7407 222.988 57.6996 223.071C57.6585 223.153 57.6345 223.243 57.6288 223.336C57.6231 223.428 57.6359 223.52 57.6665 223.607C57.9114 224.25 59.5396 225.505 59.5396 225.505L57.1585 224.93C57.0806 225.009 57.0284 225.109 57.0087 225.219C56.9891 225.328 57.0028 225.44 57.0483 225.542C57.2441 225.878 59.3682 226.717 59.3682 226.717L57.7706 226.809C57.7372 226.876 57.7176 226.95 57.7128 227.025C57.708 227.1 57.7181 227.175 57.7426 227.246C57.767 227.317 57.8054 227.383 57.8554 227.439C57.9054 227.495 57.966 227.541 58.0338 227.574C58.6476 227.75 59.2809 227.849 59.9191 227.868C59.9191 227.868 61.5535 229.563 62.4044 229.294C62.6384 229.213 62.8902 229.198 63.1321 229.251C63.374 229.304 63.5966 229.423 63.7755 229.594L72.9574 237.827L73.6307 237.343L74.5672 233.658Z" fill="url(#paint6_linear_305_265)"/>
<path d="M99.3206 214.989C98.9247 215.49 98.4683 215.94 97.9616 216.329C97.9616 216.329 97.6311 218.661 96.7864 218.937C96.5536 219.011 96.3453 219.147 96.1837 219.331C96.022 219.514 95.913 219.737 95.8682 219.978L92.5137 232.508L89.4531 229.576C89.4531 229.576 93.738 217.56 93.8604 217.492C93.9828 217.425 91.6629 214.358 91.6629 214.358C91.6629 214.358 92.4036 213.569 93.2054 214.707C93.3167 214.783 93.4466 214.827 93.5809 214.834C93.7153 214.841 93.8491 214.812 93.9681 214.749C94.087 214.686 94.1866 214.592 94.256 214.477C94.3255 214.362 94.3623 214.23 94.3624 214.095V211.034C94.3624 211.034 95.0234 210.863 95.2377 211.285C95.4435 212.074 95.5828 212.879 95.6539 213.691L96.3824 211.047C96.4699 211.017 96.5625 211.006 96.6545 211.014C96.7465 211.021 96.836 211.047 96.9178 211.09C96.9995 211.133 97.0717 211.192 97.1302 211.263C97.1886 211.335 97.232 211.417 97.2577 211.506C97.4352 212.167 96.8537 214.138 96.8537 214.138L98.4452 212.301C98.4452 212.301 98.8737 212.369 98.9104 212.754C98.9472 213.14 97.6862 215.062 97.6862 215.062L99.0329 214.199C99.1053 214.23 99.1707 214.275 99.2249 214.333C99.2792 214.39 99.321 214.457 99.348 214.531C99.375 214.606 99.3865 214.684 99.3817 214.763C99.377 214.842 99.3562 214.918 99.3206 214.989Z" fill="url(#paint7_linear_305_265)"/>
<path d="M88.5915 226.907C88.5451 227.384 88.349 227.835 88.0314 228.194C87.7137 228.554 87.2906 228.804 86.8225 228.909C86.2737 228.905 85.7254 228.942 85.182 229.019C84.9922 229.08 84.8208 229.184 84.625 229.239C84.4236 229.28 84.2176 229.292 84.0128 229.276C83.1367 229.167 82.2473 229.276 81.4235 229.594C81.2993 229.649 81.1917 229.736 81.1114 229.845C81.0418 229.979 81.008 230.129 81.0134 230.28L80.8849 232.52L80.438 232.018C80.3646 231.939 80.2421 231.853 80.1687 231.926C80.1374 231.962 80.12 232.007 80.1197 232.055C80.0739 232.351 80.0739 232.652 80.1197 232.949C80.1404 233.096 80.194 233.237 80.2767 233.361C80.3594 233.485 80.4689 233.589 80.5972 233.665C80.6503 233.684 80.6969 233.718 80.7318 233.763C80.7475 233.815 80.7475 233.87 80.7318 233.922L80.5788 235.464C80.5788 235.464 80.5788 235.526 80.5788 235.544C80.5788 235.562 80.4197 235.544 80.3646 235.495C79.9962 235.048 79.7477 234.515 79.6423 233.946C79.6237 233.85 79.5863 233.759 79.5321 233.677C79.4585 233.606 79.3762 233.544 79.2872 233.493C79.0058 233.277 78.7932 232.983 78.6751 232.649C78.391 232.066 78.1851 231.449 78.063 230.812C77.9345 230.166 78.0594 229.496 78.4119 228.939C78.4685 228.882 78.5068 228.81 78.5221 228.731C78.5182 228.655 78.5016 228.581 78.4731 228.511C78.4266 228.311 78.4428 228.103 78.5195 227.913C78.5962 227.724 78.7297 227.562 78.9016 227.452C79.2501 227.236 79.6402 227.096 80.0463 227.042C80.0971 226.725 80.2173 226.424 80.3982 226.159C80.5792 225.895 80.8165 225.673 81.093 225.511C81.6552 225.191 82.2836 225.005 82.9294 224.966C83.5048 224.911 84.1536 224.868 84.4964 224.354C84.57 224.197 84.6625 224.049 84.7719 223.914C85.1697 223.559 85.6778 223.956 85.9961 224.238C86.143 223.216 87.2204 223.687 87.6794 224.165C88.0162 224.532 88.2716 224.966 88.4288 225.438C88.586 225.911 88.6414 226.411 88.5915 226.907Z" fill="black"/>
<path d="M106.165 287.489L103.673 288.921C100.857 285.322 97.2276 280.664 94.4179 277.064C90.7452 272.375 86.9806 267.466 85.7441 261.645L88.4742 260.678C89.7597 266.395 93.4753 271.231 97.0868 275.858C99.8475 279.384 103.386 283.926 106.165 287.489Z" fill="url(#paint8_linear_305_265)"/>
<path d="M103.673 288.921C100.857 285.322 97.2276 280.664 94.4179 277.064C90.7452 272.375 86.9806 267.466 85.7441 261.645L97.8825 257.329C97.8825 257.329 106.844 263.451 108.13 264.552C109.415 265.654 108.821 268.225 108.13 270C107.438 271.775 106.428 274.848 106.428 274.848L102.584 273.967L103.575 267.919L96.0462 264.858L101.99 277.536L106.942 287.048L103.673 288.921Z" fill="black"/>
<path opacity="0.44" d="M108.132 270C107.777 270.912 107.342 272.155 107.005 273.159C106.669 274.163 106.436 274.848 106.436 274.848L103.675 274.236L102.843 272.437L103.584 267.919L100.052 266.481L96.0544 264.852L101.998 277.529L106.95 287.042L106.173 287.489C103.394 283.926 99.8557 279.384 97.095 275.858C93.4835 271.231 89.7495 266.395 88.4824 260.678L97.8908 257.329C97.8908 257.329 106.852 263.451 108.138 264.552C109.423 265.654 108.829 268.207 108.132 270Z" fill="url(#paint9_linear_305_265)"/>
<path d="M103.674 274.218L102.584 273.967L102.835 272.437L103.674 274.218Z" fill="black"/>
<path d="M103.674 274.218L102.584 273.967L102.835 272.437L103.674 274.218Z" fill="black"/>
<path d="M103.092 274.077L102.621 276.287L105.192 276.899L105.908 274.732L103.092 274.077Z" fill="url(#paint10_linear_305_265)"/>
<path d="M102.958 279.39L107.659 280.223C107.659 280.223 108.326 279.225 107.659 278.564C106.897 277.932 106.077 277.375 105.21 276.899L102.645 276.287L102.033 277.511L102.958 279.39Z" fill="black"/>
<path d="M103.674 288.921L105.908 291.492L107.959 290.207L106.459 287.317L103.674 288.921Z" fill="url(#paint11_linear_305_265)"/>
<path d="M105.811 292.079L106.73 294.081L112.973 290.978C112.973 290.978 113.279 289.79 112.239 289.704C110.793 289.683 109.351 289.862 107.954 290.237C107.954 290.237 105.56 291.467 105.811 292.079Z" fill="black"/>
<path d="M85.0348 237.141C85.0712 237.383 85.1611 237.613 85.298 237.815C85.298 237.852 85.9102 238.574 84.6369 239.155C84.3982 239.272 83.4494 238.849 82.8006 237.197C82.5771 236.742 82.4698 236.24 82.4884 235.734C82.4884 235.599 82.5741 235.44 82.7087 235.427C82.762 235.427 82.8145 235.44 82.8618 235.464C83.5092 235.674 84.1905 235.759 84.8695 235.715C85.1203 235.663 85.3736 235.624 85.6286 235.599C85.3946 235.774 85.2148 236.012 85.1097 236.285C85.0047 236.558 84.9787 236.855 85.0348 237.141Z" fill="url(#paint12_linear_305_265)"/>
<path d="M96.7699 218.943C96.5371 219.017 96.3289 219.153 96.1672 219.337C96.0055 219.52 95.8965 219.744 95.8517 219.984L92.4973 232.514L91.4199 231.479C91.4199 231.479 94.958 220.069 95.362 219.665C95.7836 219.341 96.2607 219.096 96.7699 218.943Z" fill="url(#paint13_linear_305_265)"/>
<g clip-path="url(#clip0_305_265)">
<path opacity="0.18" d="M498.826 183.686C496.76 192.345 493.785 200.918 488.528 208.099C480.53 219.022 468.024 225.689 455.487 230.804C445.151 235.016 434.29 238.462 423.126 238.647C407.966 238.901 393.258 233.148 378.092 232.753C360.155 232.289 342.793 239.327 324.9 240.342C306.026 241.343 287.402 235.667 272.295 224.31C268.904 221.747 265.737 218.902 262.826 215.805C256.471 209.148 251.549 201.258 248.365 192.623C246.81 188.252 245.671 183.744 244.963 179.158C243.776 171.823 243.46 164.314 243.336 156.855C242.947 133.24 244.932 107.924 259.467 89.307C264.57 82.7755 270.996 77.4068 277.355 72.0938L312.468 42.7824C321.653 35.1128 330.881 27.4185 341.117 21.221C352.436 14.3741 364.812 9.46925 377.22 4.87988C382.725 2.85116 388.316 0.85336 394.155 0.222476C406.946 -1.16299 419.551 4.16241 430.523 10.8795C440.815 17.1759 450.718 25.3465 454.955 36.6653C458.517 46.1409 457.682 56.6742 459.785 66.589C464.17 87.2906 480.963 102.401 491.404 120.128C502.741 139.376 503.922 162.205 498.826 183.686Z" fill="#68E1FD"/>
<path d="M337.986 65.6922C337.296 65.7559 336.635 66.0011 336.07 66.4031C335.505 66.805 335.056 67.3493 334.77 67.9807C334.218 69.2625 334.159 70.7029 334.603 72.0258C334.823 72.524 334.928 73.0649 334.912 73.6092C334.799 74.0619 334.588 74.4841 334.294 74.8462C333.196 76.3352 332.572 78.1193 332.5 79.9675C332.5 81.823 333.558 83.7095 335.283 84.328C334.182 86.6413 334.151 89.6101 335.766 91.6017C337.38 93.5934 340.8 94.0325 342.508 92.1213C342.971 92.981 343.686 93.6783 344.558 94.1198C345.429 94.5613 346.414 94.7257 347.381 94.5911C348.349 94.4565 349.252 94.0292 349.969 93.3666C350.687 92.704 351.184 91.8378 351.396 90.8843C353.016 91.7935 355.218 91.0327 356.282 89.5112C356.773 88.7206 357.079 87.8295 357.177 86.9042C357.276 85.979 357.164 85.0434 356.851 84.1672C356.213 82.4185 355.268 80.7974 354.061 79.3799C355.385 78.3779 356.77 77.3079 357.401 75.774C358.032 74.2401 357.575 72.1186 356.028 71.5248C356.65 70.5832 356.988 69.4824 357.001 68.3539C357.014 67.2255 356.701 66.1172 356.101 65.1616C355.501 64.2059 354.639 63.4433 353.616 62.9648C352.594 62.4864 351.456 62.3124 350.338 62.4636C349.144 62.5997 348.254 63.2986 347.072 62.7852C346.157 62.3832 345.594 61.1709 344.833 60.5462C341.456 57.8 335.908 61.3936 337.986 65.6922Z" fill="#2CA45C"/>
<path d="M426.991 131.267C426.324 146.749 419.705 161.376 408.514 172.096C397.322 182.816 382.424 188.8 366.927 188.8C351.43 188.8 336.532 182.816 325.341 172.096C314.15 161.376 307.53 146.749 306.863 131.267H426.991Z" fill="#68E1FD"/>
<path d="M402.423 131.267C402.423 131.267 393.59 178.453 384.127 180.167C374.664 181.88 402.423 183.822 416.395 162.533C428.549 144.021 426.99 131.267 426.99 131.267H402.423Z" fill="url(#paint14_linear_305_265)"/>
<path d="M323.478 131.595C323.478 131.595 328.358 176.171 357.409 180.606C386.461 185.04 394.446 181.496 394.446 181.496C394.446 181.496 376.509 199.235 352.084 192.58C327.659 185.925 314.058 159.842 314.058 159.842C314.058 159.842 306.19 138.033 306.852 131.267L323.478 131.595Z" fill="url(#paint15_linear_305_265)"/>
<path d="M343.411 135.801C343.535 135.627 343.714 135.324 343.931 135.052C344.512 134.267 345.1 134.298 345.471 135.225C346.089 136.728 346.807 138.25 346.355 139.938C346.152 140.441 345.89 140.919 345.576 141.361C344.63 143.068 342.434 144.249 343.349 146.73C343.39 146.846 343.406 146.969 343.395 147.092C343.385 147.215 343.348 147.334 343.288 147.441C342.508 148.585 343.009 149.445 343.702 150.435C344.667 151.814 345.347 153.397 346.337 154.764C347.753 156.694 348.57 159.094 350.71 160.448C351.749 161.104 352.881 161.642 353.858 162.372C354.38 162.776 354.742 163.352 354.879 163.999C355.114 165.706 355.114 167.444 355.293 169.163C355.435 170.542 355.763 171.916 355.911 173.295C356.052 174.074 356.035 174.873 355.862 175.645C355.462 176.772 355.451 178 355.831 179.134C356.165 180.148 356.45 181.181 356.753 182.226C357.656 185.065 361.862 187.174 364.849 186.277L361.67 184.675C362.245 184.057 362.69 183.605 363.191 183.08L361.874 182.288L363.111 181.546C362.975 180.958 362.839 180.352 362.678 179.61L364.534 179.907C364.602 179.406 364.663 178.979 364.738 178.459C365.919 178.342 367.107 178.243 368.449 178.119C368.313 177.328 368.183 176.592 368.047 175.855C370.063 176.431 371.288 175.948 372.618 174.235C373.212 173.576 373.848 172.956 374.523 172.379C375.395 171.507 376.378 170.703 376.378 169.287C376.378 169.07 376.891 168.78 377.213 168.637C378.815 167.969 380.207 166.745 382.161 166.906C382.452 166.906 382.891 166.497 383.07 166.163C383.992 164.388 384.883 162.582 385.742 160.776C385.876 160.427 385.908 160.048 385.835 159.681C385.711 158.766 385.507 157.863 386.751 157.523C386.936 157.467 387.06 157.152 387.208 156.954C387.957 155.896 388.68 154.814 389.472 153.793C390.091 153.014 390.239 150.812 389.627 150.082C389.503 149.94 389.256 149.767 389.132 149.798C387.845 150.156 387.134 149.247 386.373 148.56C386.081 148.274 385.72 148.066 385.325 147.958C384.93 147.85 384.514 147.844 384.116 147.942C383.46 148.066 382.718 147.651 382.031 147.725C380.621 147.868 379.836 146.921 378.846 146.21C378.079 145.666 377.071 145.183 376.205 146.315C374.968 145.542 374.034 144.608 373.885 143.136C373.856 142.246 373.533 141.391 372.965 140.705C372.398 140.018 371.618 139.54 370.75 139.345C369.97 139.145 369.161 139.093 368.362 139.19C367.985 139.276 367.591 139.25 367.228 139.115C366.865 138.979 366.55 138.741 366.321 138.429C365.554 137.452 364.88 136.314 363.451 136.054C363.222 136.054 362.925 135.609 362.876 135.33C362.839 134.996 362.701 134.681 362.48 134.428C362.259 134.175 361.965 133.995 361.639 133.914C361.302 133.808 360.956 133.732 360.606 133.685C360.196 133.627 359.779 133.627 359.369 133.685C358.562 133.804 357.739 133.755 356.952 133.542C356.165 133.329 355.429 132.957 354.792 132.448C352.776 130.902 349.429 131.706 347.988 133.803L347.926 133.889C347.623 134.322 347.308 134.761 346.974 135.225C346.56 134.861 346.115 134.534 345.644 134.248C344.989 133.92 344.339 133.63 343.597 134.279C343.371 134.379 343.124 134.422 342.878 134.402C342.631 134.383 342.394 134.302 342.187 134.168C342.075 134.075 343.003 131.378 342.91 131.285H338.791C338.847 131.465 340.647 134.26 340.702 134.378L343.411 135.801Z" fill="#C1FFDA"/>
<path d="M405.845 177.563C404.701 179.975 402.752 181.893 400.767 183.674C396.07 188.025 390.922 191.861 385.409 195.116C382.105 197.045 378.629 198.66 375.024 199.941C358.702 205.668 340.721 203.46 323.787 199.941C315.294 198.178 306.518 196.1 298.044 197.937C292.477 199.143 287.424 201.957 282.458 204.74L262.801 215.775C259.445 212.228 256.47 208.339 253.925 204.171C251.687 200.519 249.822 196.65 248.359 192.624C246.804 188.252 245.665 183.744 244.957 179.159C248.285 177.582 253.74 178.052 256.814 177.47C263.512 176.196 270.069 174.229 276.606 172.269L294.754 166.813C298.168 165.786 301.557 164.76 304.891 163.442C307.946 162.205 310.909 160.752 314.07 159.843C319.111 158.389 324.436 158.414 329.675 158.439L355.72 158.593C356.219 158.55 356.719 158.644 357.168 158.865C358.337 159.595 357.786 161.42 356.927 162.49C353.327 167.017 347.148 168.496 341.408 169.077C339.707 169.25 337.951 169.386 336.429 170.153C334.907 170.92 333.646 172.516 333.85 174.211C334.14 176.771 337.184 177.872 339.707 178.386C347.096 179.858 354.543 180.985 362.048 181.769C366.235 182.196 370.478 182.499 374.641 181.874C385.65 180.229 394.829 172.324 405.696 169.924C407.199 172.132 406.989 175.157 405.845 177.563Z" fill="#F9BA9F"/>
<path d="M366.74 135.417C399.858 135.417 426.705 133.706 426.705 131.595C426.705 129.484 399.858 127.772 366.74 127.772C333.623 127.772 306.775 129.484 306.775 131.595C306.775 133.706 333.623 135.417 366.74 135.417Z" fill="#3E3E54"/>
<path d="M349.207 122.682C352.417 121.986 355.676 121.545 358.955 121.365C363.409 121.037 367.924 120.826 372.303 121.705C375.195 122.379 378.039 123.249 380.814 124.309C392.531 128.369 404.668 131.096 416.997 132.436C393.79 133.228 370.571 132.436 347.389 131.304C344.214 131.143 341.041 130.976 337.87 130.803C335.446 130.673 331.264 131.211 329.174 130.147C330.547 127.952 335.705 127.42 338.012 126.548C341.711 125.162 345.348 123.604 349.207 122.682Z" fill="#3E3E54"/>
<path d="M352.36 123.616C352.36 123.616 350.864 89.6843 343.701 77.7099L345.86 76.7141C345.86 76.7141 356.01 123.449 356.177 123.95C356.344 124.451 354.853 125.942 352.36 123.616Z" fill="#3E3E54"/>
<path d="M373.799 65.8902C373.131 65.7051 372.426 65.7002 371.755 65.8763C371.085 66.0523 370.473 66.4028 369.983 66.8922C369.015 67.8924 368.45 69.2131 368.393 70.6033C368.423 71.1489 368.33 71.6943 368.121 72.199C367.857 72.5893 367.511 72.9166 367.106 73.1577C365.553 74.1637 364.336 75.6111 363.612 77.3141C362.993 79.0398 363.278 81.186 364.676 82.3798C362.82 84.1487 361.744 86.9135 362.542 89.3504C363.34 91.7873 366.395 93.4079 368.665 92.2203C368.794 93.189 369.215 94.0951 369.874 94.8171C370.532 95.5391 371.396 96.0423 372.349 96.2591C373.301 96.4759 374.298 96.396 375.204 96.03C376.11 95.6641 376.882 95.0296 377.417 94.2119C378.611 95.6345 380.943 95.7025 382.477 94.6572C383.216 94.0913 383.818 93.3657 384.238 92.5347C384.658 91.7036 384.884 90.7885 384.901 89.8576C384.922 87.9977 384.615 86.1488 383.992 84.3961C385.581 83.9322 387.258 83.4189 388.39 82.2066C389.521 80.9943 389.849 78.8542 388.606 77.7471C389.529 77.0892 390.242 76.1783 390.659 75.1243C391.076 74.0702 391.18 72.9181 390.957 71.8067C390.734 70.6953 390.194 69.6721 389.403 68.8605C388.611 68.0489 387.602 67.4834 386.497 67.2324C385.334 66.9355 384.252 67.2757 383.33 66.3788C382.619 65.6799 382.526 64.3439 382.031 63.4904C379.842 59.7422 373.384 61.1338 373.799 65.8902Z" fill="#2CA45C"/>
<path d="M374.863 94.1067C374.819 92.9686 374.788 91.7564 375.37 90.7791C375.736 90.2325 376.189 89.7498 376.712 89.3503C377.561 88.5854 378.492 87.9174 379.489 87.3587C380.497 86.8019 381.657 86.585 382.798 86.7402C381.53 87.903 379.706 88.2927 378.382 89.3689C376.866 90.6655 375.693 92.3163 374.968 94.1747C373.96 97.5085 373.91 101.535 373.391 104.993C372.871 108.45 372.351 112.013 371.826 115.507C371.281 119.218 370.329 123.059 370.18 126.795C370.18 127.321 368.226 128.193 366.717 125.131C368.572 119.565 370.106 113.893 371.504 108.209C372.685 103.366 373.731 98.4734 374.454 93.5377C374.782 91.311 375.339 88.7751 375.221 86.5237C375.091 84.1425 372.58 81.8107 370.576 80.7901C370.44 80.7159 370.298 80.6479 370.156 80.586C369.945 80.7344 370.106 81.0684 370.279 81.2664C371.801 82.9611 373.848 84.3156 374.646 86.4495C374.856 87.0124 374.968 87.6061 375.16 88.1752C375.036 87.8102 375.481 86.7464 375.425 86.2207C375.325 85.5199 375.271 84.8133 375.265 84.1053C375.291 82.4484 375.168 80.7925 374.9 79.1572L377.275 78.9902C377.275 78.9902 376.273 85.6702 375.036 94.0387" fill="#3E3E54"/>
<path d="M400.629 70.4546C399.961 70.2688 399.256 70.2637 398.585 70.4398C397.915 70.6158 397.303 70.9667 396.813 71.4566C395.846 72.4568 395.28 73.7776 395.223 75.1677C395.251 75.7132 395.158 76.2581 394.951 76.7635C394.687 77.1537 394.341 77.481 393.937 77.7222C392.384 78.7265 391.167 80.1717 390.442 81.8724C389.823 83.6042 390.102 85.7505 391.506 86.9442C389.65 88.7132 388.574 91.4779 389.372 93.9149C390.17 96.3518 393.225 97.9723 395.495 96.7848C395.624 97.7534 396.045 98.6596 396.704 99.3816C397.362 100.104 398.226 100.607 399.179 100.824C400.132 101.04 401.128 100.96 402.034 100.594C402.94 100.229 403.712 99.5941 404.247 98.7764C405.441 100.199 407.773 100.267 409.307 99.2217C410.044 98.6539 410.645 97.928 411.064 97.0973C411.484 96.2667 411.712 95.3524 411.731 94.422C411.75 92.5618 411.441 90.7129 410.816 88.9606C412.412 88.4967 414.082 87.9833 415.22 86.771C416.358 85.5587 416.673 83.4187 415.436 82.3115C416.359 81.6536 417.072 80.7427 417.489 79.6887C417.906 78.6347 418.01 77.4825 417.787 76.3711C417.564 75.2597 417.024 74.2366 416.233 73.4249C415.441 72.6133 414.432 72.0479 413.327 71.7968C412.164 71.4999 411.082 71.8401 410.16 70.9433C409.443 70.2443 409.35 68.9084 408.861 68.0548C406.672 64.3128 400.214 65.6983 400.629 70.4546Z" fill="#2CA45C"/>
<path d="M401.695 98.6714C401.651 97.5333 401.62 96.321 402.196 95.3438C402.564 94.797 403.019 94.3144 403.544 93.915C404.393 93.1501 405.324 92.4821 406.321 91.9234C407.329 91.3661 408.489 91.1492 409.63 91.3049C408.362 92.4677 406.538 92.8574 405.214 93.9336C403.698 95.2316 402.523 96.8818 401.794 98.7394C400.792 102.073 400.742 106.1 400.223 109.557C399.703 113.015 399.177 116.577 398.658 120.072C398.113 123.783 397.161 127.624 397.006 131.36C397.006 131.886 395.058 132.758 393.549 129.696C395.404 124.129 396.938 118.458 398.33 112.774C399.517 107.931 400.563 103.038 401.286 98.1024C401.608 95.8757 402.171 93.3398 402.047 91.0884C401.924 88.7071 399.406 86.3754 397.408 85.3548C397.272 85.2806 397.13 85.2125 396.988 85.1507C396.777 85.2991 396.932 85.6331 397.111 85.8311C398.633 87.5258 400.68 88.8803 401.478 91.0142C401.688 91.5771 401.8 92.1708 401.992 92.7399C401.868 92.3749 402.313 91.3111 402.251 90.7854C402.157 90.084 402.103 89.3777 402.09 88.67C402.122 87.0129 402 85.3564 401.726 83.7219L404.107 83.5549C404.107 83.5549 403.105 90.2349 401.855 98.6034" fill="#3E3E54"/>
<path d="M382.682 96.6859C382.309 96.5823 381.916 96.5798 381.542 96.6787C381.168 96.7776 380.827 96.9744 380.554 97.2488C380.012 97.8083 379.695 98.5482 379.664 99.327C379.679 99.6317 379.626 99.9359 379.509 100.218C379.363 100.436 379.171 100.62 378.946 100.756C378.078 101.317 377.398 102.125 376.992 103.075C376.804 103.556 376.763 104.081 376.873 104.585C376.983 105.089 377.239 105.549 377.61 105.908C377.073 106.384 376.678 106.999 376.469 107.686C376.259 108.372 376.243 109.103 376.423 109.798C376.868 111.159 378.569 112.068 379.837 111.407C379.911 111.947 380.148 112.452 380.516 112.854C380.885 113.256 381.367 113.536 381.899 113.656C382.431 113.777 382.987 113.732 383.493 113.527C383.999 113.323 384.43 112.97 384.729 112.514C385.094 112.885 385.578 113.114 386.096 113.16C386.614 113.207 387.131 113.068 387.556 112.767C387.968 112.45 388.303 112.045 388.537 111.582C388.772 111.118 388.899 110.608 388.911 110.089C388.921 109.049 388.749 108.015 388.403 107.034C389.324 106.85 390.178 106.423 390.877 105.797C391.496 105.122 391.688 103.941 391.001 103.323C391.51 102.952 391.903 102.443 392.131 101.856C392.36 101.269 392.415 100.629 392.291 100.012C392.166 99.3946 391.867 98.8259 391.429 98.3733C390.991 97.9208 390.433 97.6035 389.82 97.4591C389.17 97.2921 388.583 97.4591 388.051 96.9828C387.649 96.5931 387.599 95.8447 387.321 95.3685C386.059 93.2532 382.459 94.0325 382.682 96.6859Z" fill="#2CA45C"/>
<path d="M383.275 112.452C383.191 111.819 383.29 111.175 383.559 110.596C383.76 110.289 384.014 110.019 384.308 109.799C384.78 109.369 385.301 108.995 385.86 108.685C386.425 108.372 387.076 108.25 387.716 108.339C387.01 108.957 385.996 109.205 385.241 109.805C384.395 110.531 383.739 111.452 383.33 112.489C382.774 114.345 382.743 116.602 382.452 118.532L381.58 124.414C381.277 126.48 380.745 128.638 380.658 130.723C380.658 131.02 379.57 131.502 378.729 129.795C379.749 126.703 380.621 123.517 381.4 120.338C382.062 117.635 382.638 114.901 383.046 112.143C383.314 110.854 383.457 109.543 383.473 108.228C383.404 106.898 382 105.593 380.881 105.024L380.646 104.906C380.528 104.993 380.646 105.178 380.714 105.29C381.567 106.236 382.712 106.991 383.157 108.184C383.275 108.5 383.336 108.803 383.442 109.149C383.374 108.945 383.621 108.351 383.59 108.061C383.534 107.667 383.503 107.27 383.497 106.873C383.516 105.945 383.448 105.017 383.293 104.102L384.623 104.009L383.386 112.415" fill="#3E3E54"/>
<path d="M415.672 97.2178C415.301 97.0512 414.893 96.9858 414.489 97.0282C414.085 97.0706 413.699 97.2192 413.371 97.459C412.722 97.9569 412.282 98.6775 412.134 99.4816C412.1 99.7983 411.999 100.104 411.837 100.378C411.652 100.585 411.421 100.746 411.163 100.848C410.174 101.296 409.34 102.028 408.769 102.951C408.496 103.417 408.367 103.954 408.398 104.493C408.428 105.032 408.618 105.55 408.942 105.982C408.308 106.392 407.8 106.968 407.472 107.648C407.145 108.328 407.012 109.085 407.087 109.835C407.34 111.32 408.942 112.526 410.383 112.037C410.373 112.61 410.539 113.172 410.857 113.648C411.175 114.124 411.632 114.491 412.165 114.7C412.698 114.91 413.282 114.951 413.839 114.819C414.396 114.687 414.9 114.387 415.282 113.961C415.603 114.402 416.07 114.714 416.6 114.843C417.13 114.972 417.689 114.91 418.177 114.666C418.659 114.404 419.077 114.037 419.398 113.591C419.719 113.146 419.936 112.634 420.032 112.093C420.204 111.016 420.188 109.917 419.983 108.846C420.959 108.802 421.905 108.497 422.723 107.961C423.49 107.343 423.861 106.149 423.242 105.401C423.83 105.097 424.319 104.631 424.649 104.058C424.98 103.485 425.138 102.828 425.106 102.167C425.074 101.507 424.853 100.869 424.469 100.33C424.085 99.7914 423.554 99.3745 422.939 99.129C422.321 98.8569 421.634 98.962 421.183 98.3559C420.824 97.8858 420.892 97.1188 420.682 96.5684C419.711 94.1809 415.857 94.4221 415.672 97.2178Z" fill="#2CA45C"/>
<path d="M413.811 113.664C413.828 113.003 414.029 112.36 414.393 111.808C414.653 111.522 414.961 111.281 415.302 111.097C415.86 110.728 416.457 110.423 417.083 110.188C417.716 109.952 418.408 109.929 419.056 110.12C418.221 110.683 417.139 110.738 416.267 111.258C415.273 111.871 414.446 112.721 413.861 113.732C412.982 115.587 412.624 117.901 412.005 119.861L410.15 125.83C409.531 127.927 408.616 130.079 408.201 132.232C408.146 132.535 406.964 132.85 406.346 130.995C407.898 127.902 409.302 124.779 410.607 121.599C411.721 118.897 412.753 116.157 413.607 113.355C414.088 112.058 414.442 110.718 414.665 109.353C414.801 107.967 413.551 106.39 412.481 105.642L412.253 105.487C412.116 105.555 412.178 105.765 412.253 105.895C412.989 107.009 414.052 107.974 414.331 109.285C414.399 109.625 414.411 109.984 414.473 110.33C414.436 110.107 414.788 109.526 414.801 109.217C414.805 108.803 414.836 108.39 414.894 107.98C415.054 107.019 415.129 106.046 415.116 105.073L416.508 105.184L413.885 113.713" fill="#3E3E54"/>
<path d="M317.03 97.2178C316.601 97.256 316.189 97.4056 315.836 97.6518C315.482 97.8981 315.199 98.2325 315.014 98.6219C314.661 99.4157 314.612 100.312 314.878 101.139C315.012 101.454 315.075 101.794 315.064 102.135C314.991 102.42 314.858 102.685 314.674 102.914C313.981 103.836 313.578 104.942 313.517 106.094C313.498 106.67 313.649 107.239 313.953 107.729C314.257 108.219 314.699 108.608 315.224 108.846C314.842 109.55 314.662 110.347 314.706 111.148C314.75 111.948 315.015 112.721 315.472 113.38C316.461 114.617 318.564 114.932 319.672 113.751C319.951 114.298 320.392 114.745 320.935 115.032C321.478 115.319 322.096 115.431 322.705 115.353C323.314 115.275 323.884 115.011 324.338 114.597C324.791 114.183 325.106 113.639 325.238 113.039C325.761 113.289 326.356 113.344 326.916 113.194C327.476 113.045 327.965 112.7 328.294 112.223C328.604 111.732 328.801 111.178 328.87 110.601C328.938 110.024 328.877 109.439 328.689 108.889C328.303 107.796 327.725 106.78 326.982 105.889C327.87 105.347 328.598 104.579 329.092 103.663C329.494 102.71 329.221 101.387 328.263 101.009C328.655 100.426 328.872 99.7429 328.888 99.0402C328.903 98.3376 328.716 97.6453 328.349 97.0458C327.982 96.4463 327.451 95.9648 326.818 95.6587C326.186 95.3525 325.478 95.2346 324.78 95.319C324.038 95.3932 323.475 95.8262 322.746 95.4922C322.177 95.2386 321.836 94.4778 321.36 94.082C319.251 92.3254 315.769 94.5211 317.03 97.2178Z" fill="#2CA45C"/>
<path d="M323.699 113.509C323.366 112.877 323.222 112.162 323.285 111.45C323.381 111.052 323.544 110.673 323.767 110.33C324.098 109.698 324.5 109.107 324.967 108.568C325.436 108.026 326.068 107.651 326.767 107.498C326.272 108.444 325.301 109.062 324.744 109.972C324.135 111.055 323.802 112.273 323.773 113.516C323.897 115.68 324.732 118.049 325.171 120.183C325.61 122.317 326.062 124.513 326.513 126.684C326.983 128.966 327.249 131.428 327.961 133.648C328.066 133.958 327.12 134.885 325.579 133.413C325.462 129.764 325.159 126.109 324.757 122.484C324.41 119.392 323.978 116.299 323.34 113.262C323.125 111.808 322.773 110.377 322.289 108.988C321.708 107.627 319.735 106.799 318.343 106.625H318.052C317.959 106.755 318.126 106.916 318.269 106.997C319.506 107.658 321.015 108.017 321.936 109.093C322.178 109.378 322.376 109.712 322.604 109.996C322.456 109.811 322.487 109.087 322.345 108.796C322.135 108.396 321.951 107.983 321.794 107.559C321.455 106.581 321.028 105.635 320.52 104.733L321.875 104.114C321.875 104.114 322.722 108.24 323.78 113.392" fill="#3E3E54"/>
<path d="M349.831 87.5628C350.449 86.4989 351.371 85.5773 351.841 84.4207C352.251 83.1991 352.413 81.908 352.317 80.623C352.527 81.7941 352.608 82.9846 352.559 84.1733C353.028 84.0269 353.525 83.9943 354.009 84.0782C354.493 84.1621 354.95 84.3601 355.342 84.6558C354.105 84.7671 352.818 84.897 351.81 85.6145C350.573 86.4989 350.041 88.0885 349.868 89.5977C349.695 91.1069 349.794 92.6531 349.46 94.1438C349.46 93.0304 348.903 91.9666 348.78 90.9027C348.656 89.8389 349.281 88.472 349.831 87.5628Z" fill="#3E3E54"/>
<path d="M343.052 82.0519C342.78 81.4829 342.563 80.8149 342 80.5242L344.048 84.4455L340.837 85.4661C340.559 85.5527 340.219 85.7753 340.33 86.0413C341.215 86.1217 342.068 85.732 342.947 85.6083C343.924 85.494 344.912 85.6983 345.763 86.191C346.615 86.6836 347.284 87.4381 347.672 88.3422C347.592 88.1443 347.858 87.4082 347.858 87.1484C347.885 86.7714 347.813 86.3937 347.647 86.0537C347.369 85.6516 346.707 85.4785 346.299 85.2249C344.937 84.4966 343.811 83.3961 343.052 82.0519Z" fill="#3E3E54"/>
<path d="M333.46 99.3579C333.033 99.3971 332.624 99.5489 332.274 99.7976C331.924 100.046 331.646 100.383 331.469 100.774C331.124 101.57 331.089 102.465 331.37 103.285C331.504 103.596 331.567 103.931 331.555 104.269C331.489 104.553 331.36 104.819 331.178 105.048C330.5 105.974 330.114 107.081 330.071 108.227C330.059 108.798 330.216 109.36 330.523 109.841C330.83 110.322 331.274 110.701 331.797 110.93C331.426 111.636 331.258 112.431 331.31 113.227C331.363 114.022 331.634 114.788 332.094 115.439C333.089 116.676 335.217 116.942 336.269 115.755C336.556 116.288 337 116.72 337.54 116.993C338.08 117.267 338.691 117.369 339.29 117.285C339.89 117.202 340.45 116.937 340.895 116.526C341.34 116.116 341.648 115.579 341.779 114.988C342.304 115.228 342.896 115.274 343.452 115.118C344.007 114.962 344.488 114.613 344.81 114.134C345.112 113.644 345.301 113.092 345.362 112.52C345.423 111.947 345.355 111.368 345.163 110.825C344.765 109.741 344.179 108.736 343.431 107.856C344.306 107.307 345.021 106.537 345.503 105.623C345.893 104.671 345.608 103.36 344.649 102.989C345.034 102.405 345.243 101.723 345.251 101.024C345.259 100.325 345.065 99.6384 344.693 99.0463C344.322 98.4543 343.788 97.9816 343.155 97.6848C342.522 97.388 341.817 97.2796 341.124 97.3725C340.382 97.4591 339.831 97.8921 339.101 97.5766C338.532 97.3292 338.186 96.5746 337.71 96.185C335.613 94.4717 332.174 96.6921 333.46 99.3579Z" fill="#2CA45C"/>
<path d="M342.372 135.256C342.372 135.256 341.445 114.227 337.01 106.805L338.352 106.186C338.352 106.186 344.636 135.151 344.729 135.442C344.822 135.733 343.919 136.679 342.372 135.256Z" fill="#3E3E54"/>
<path d="M340.802 112.91C341.262 112.293 341.675 111.644 342.039 110.967C342.291 110.209 342.39 109.408 342.33 108.611C342.46 109.337 342.51 110.076 342.479 110.813C342.769 110.723 343.077 110.703 343.377 110.754C343.677 110.806 343.96 110.928 344.204 111.11C343.433 111.119 342.677 111.332 342.015 111.728C341.655 112.036 341.363 112.415 341.155 112.84C340.948 113.266 340.83 113.729 340.809 114.202C340.776 115.146 340.694 116.088 340.561 117.023C340.46 116.345 340.319 115.674 340.141 115.012C340.143 114.261 340.374 113.527 340.802 112.91Z" fill="#3E3E54"/>
<path d="M336.602 109.495C336.428 109.143 336.299 108.722 335.946 108.549L337.183 110.98L335.198 111.598C335.024 111.654 334.808 111.796 334.882 111.957C335.431 111.929 335.974 111.84 336.503 111.691C337.109 111.618 337.723 111.744 338.251 112.049C338.78 112.355 339.195 112.824 339.434 113.386C339.385 113.262 339.546 112.804 339.546 112.643C339.565 112.409 339.52 112.174 339.416 111.963C339.243 111.716 338.834 111.61 338.581 111.45C337.752 110.995 337.067 110.318 336.602 109.495Z" fill="#3E3E54"/>
<path d="M368.937 16.8545C371.286 20.6177 372.457 24.9968 372.301 29.4301C372.144 33.8635 370.667 38.1491 368.059 41.7373C371.689 41.9847 375.357 42.7455 378.499 44.5886C381.641 46.4318 384.202 49.4625 384.876 53.0437C387.679 49.1899 391.853 46.5577 396.538 45.6889C401.224 44.8202 406.064 45.7812 410.062 48.3739C409.443 43.1413 406.45 37.9458 407.922 32.8802C409.01 29.1691 412.251 26.5157 415.344 24.1344C412.57 22.1991 410.381 19.5377 409.019 16.4416C407.656 13.3454 407.172 9.93402 407.619 6.58099C404.588 9.12308 400.227 9.67355 396.393 8.72723C393.183 7.91079 391.172 5.80166 388.352 4.42856C386.496 3.53171 386.973 3.59356 385.668 5.22644C384.746 6.37069 384.053 7.66338 383.076 8.77671C381.226 10.8848 379.037 12.67 376.6 14.0588C375.877 14.467 369.469 17.6771 368.937 16.8545Z" fill="url(#paint16_radial_305_265)"/>
<path d="M391.452 41.4463C399.719 41.4463 406.42 34.7449 406.42 26.4783C406.42 18.2117 399.719 11.5103 391.452 11.5103C383.186 11.5103 376.484 18.2117 376.484 26.4783C376.484 34.7449 383.186 41.4463 391.452 41.4463Z" fill="#FFCF36"/>
<path d="M385.791 191.807L385.407 195.116C382.104 197.045 378.627 198.66 375.023 199.941C358.7 205.668 340.72 203.46 323.785 199.941C315.293 198.178 306.516 196.1 298.042 197.937C292.476 199.143 287.423 201.957 282.456 204.74L262.799 215.775C259.443 212.228 256.469 208.339 253.924 204.171C257.944 202.093 283.916 188.919 294.647 190.143C306.287 191.473 338.221 197.126 345.872 196.799C353.523 196.471 385.791 191.807 385.791 191.807Z" fill="url(#paint17_linear_305_265)"/>
</g>
<g clip-path="url(#clip1_305_265)">
<path opacity="0.24" d="M312.622 465.299C316.772 465.54 320.592 467.839 324.964 468.43C354.397 472.408 384.231 472.408 413.663 468.43C427.493 466.565 440.959 463.014 454.887 462.178C469.179 461.314 483.986 462.787 497.754 458.019C514.209 452.315 526.121 437.381 526.787 421.616C527.424 406.582 518.869 392.635 514.275 378.177C508.84 361.023 508.987 342.587 514.695 325.522C520.432 308.383 531.749 292.056 530.687 274.195C529.2 249.199 498.769 229.052 471.616 235.072C457.394 238.221 445.463 247.046 431.402 250.724C408.564 256.706 384.026 248.363 360.381 250.724C340.295 252.773 321.796 262.664 308.359 276.178C294.921 289.691 286.247 306.575 281.007 324.016C276.384 339.418 274.165 355.707 265.477 369.631C259.113 379.825 249.353 388.654 246.501 400.062C243.159 413.428 233.239 460.738 312.622 465.299Z" fill="#68E1FD"/>
<path d="M281.096 373.114V397.288C281.095 398.616 281.356 399.932 281.864 401.159C282.372 402.386 283.117 403.501 284.057 404.441C284.996 405.38 286.111 406.125 287.338 406.633C288.566 407.141 289.881 407.402 291.209 407.401H293.027L293.5 412.5L298.547 407.401H340.516C343.199 407.401 345.771 406.336 347.668 404.439C349.564 402.543 350.63 399.97 350.63 397.288V373.114C350.631 371.785 350.369 370.47 349.861 369.243C349.353 368.015 348.608 366.9 347.669 365.961C346.73 365.022 345.615 364.277 344.387 363.769C343.16 363.261 341.845 362.999 340.516 363H291.209C289.881 362.999 288.566 363.261 287.338 363.769C286.111 364.277 284.996 365.022 284.057 365.961C283.117 366.9 282.372 368.015 281.864 369.243C281.356 370.47 281.095 371.785 281.096 373.114Z" fill="#8EE4FF"/>
<path d="M290.062 377.677H341.871V374.782H290.062V377.677Z" fill="#D5F6FF" fill-opacity="0.7"/>
<path d="M290.062 385.321H341.871V382.426H290.062V385.321Z" fill="#D5F6FF" fill-opacity="0.7"/>
<path d="M290.062 392.96H341.871V390.066H290.062V392.96Z" fill="#D5F6FF" fill-opacity="0.7"/>
<path d="M380.658 464.265C424.05 464.265 459.225 458.448 459.225 451.272C459.225 444.095 424.05 438.278 380.658 438.278C337.267 438.278 302.092 444.095 302.092 451.272C302.092 458.448 337.267 464.265 380.658 464.265Z" fill="url(#paint18_linear_305_265)"/>
<path d="M418.379 262.376H347.556C339.444 262.376 332.867 268.953 332.867 277.065V441.248C332.867 449.36 339.444 455.936 347.556 455.936H418.379C426.492 455.936 433.068 449.36 433.068 441.248V277.065C433.068 268.953 426.492 262.376 418.379 262.376Z" fill="#5EB2F8"/>
<path d="M426.042 278.718V439.331H339.416V278.718C339.421 277.108 340.063 275.565 341.201 274.427C342.34 273.288 343.883 272.646 345.493 272.641H367.816C367.819 274.002 368.361 275.307 369.324 276.269C370.287 277.231 371.592 277.772 372.953 277.774H393.091C393.767 277.775 394.436 277.644 395.062 277.387C395.687 277.129 396.255 276.751 396.734 276.274C397.213 275.797 397.593 275.23 397.852 274.606C398.112 273.982 398.246 273.312 398.247 272.636H419.966C421.577 272.639 423.122 273.281 424.261 274.421C425.401 275.561 426.041 277.106 426.042 278.718Z" fill="url(#paint19_linear_305_265)"/>
<path opacity="0.24" d="M421.15 384.968H343.357V424.492H421.15V384.968Z" fill="#68E1FD"/>
<path opacity="0.51" d="M421.74 301.082H343.174V376.693H421.74V301.082Z" fill="#FFCF36" fill-opacity="0.46"/>
<path d="M376.545 410.553L381.007 406.143L384 406.818V407.673L379.293 412.805L375.322 412.989L376.545 410.553Z" fill="#606161"/>
<path d="M380.664 406.776L382.935 407.404L378.624 411.837L376.967 411.851L377.245 410.104L380.664 406.776Z" fill="url(#paint20_linear_305_265)"/>
<path d="M355.468 423.268C355.468 423.268 372.65 415.364 375.908 416.63C379.166 417.895 387.853 433.533 387.853 433.533L381.72 433.41L371.946 424.977L363.636 431.942L351.559 431.224L355.468 423.268Z" fill="#606161"/>
<path d="M355.468 423.268C355.468 423.268 372.65 415.364 375.908 416.63C379.166 417.895 387.853 433.533 387.853 433.533L381.72 433.41L371.946 424.977L363.636 431.942L351.559 431.224L355.468 423.268Z" fill="#1B6E3C"/>
<path d="M341.781 435.058C341.781 435.058 342.943 439.029 346.059 439.458C349.175 439.888 395.673 438.778 395.673 438.778C396.056 438.562 396.385 438.263 396.638 437.904C396.891 437.545 397.062 437.134 397.137 436.701C397.505 435.11 396.528 433.396 396.528 433.396L357.613 428.896L341.781 435.058Z" fill="#606161"/>
<path d="M341.781 435.058C341.781 435.058 342.943 439.029 346.059 439.458C349.175 439.888 395.673 438.778 395.673 438.778C396.056 438.562 396.385 438.263 396.638 437.904C396.891 437.545 397.062 437.134 397.137 436.701C397.505 435.11 396.528 433.396 396.528 433.396L357.613 428.896L341.781 435.058Z" fill="#2CA45C"/>
<path d="M373.859 412.862C375.186 412.88 376.481 413.275 377.593 414C378.142 414.369 378.589 414.869 378.894 415.456C379.2 416.042 379.353 416.696 379.34 417.357C379.344 417.549 379.283 417.737 379.166 417.89C379.027 418.022 378.842 418.093 378.651 418.089C377.598 418.122 376.928 416.894 375.908 416.63C375.252 416.46 374.562 416.715 373.887 416.672C373.486 416.641 373.099 416.508 372.763 416.286C372.428 416.064 372.155 415.76 371.97 415.402C371.817 415.099 371.733 414.767 371.725 414.428C371.717 414.089 371.785 413.752 371.923 413.443C372.305 412.782 373.155 412.81 373.859 412.862Z" fill="#F4A982"/>
<path d="M362.782 412.555C362.777 412.617 362.785 412.679 362.804 412.738C362.823 412.798 362.854 412.852 362.895 412.9C362.992 412.965 363.11 412.992 363.226 412.975L372.348 412.796C372.569 413.895 372.58 415.026 372.381 416.129C372.364 416.311 372.297 416.484 372.187 416.63C371.994 416.797 371.748 416.89 371.493 416.894C367.64 417.391 363.844 418.264 360.161 419.5C359.792 419.668 359.383 419.73 358.981 419.68C358.235 419.514 357.895 418.655 357.739 417.909C357.215 415.392 357.409 412.786 357.111 410.232C356.965 408.99 356.715 407.673 357.229 406.53C357.701 405.473 361.101 402.866 361.819 404.547C362.291 405.661 362.258 407.338 362.399 408.537C362.569 409.871 362.697 411.211 362.782 412.555Z" fill="white"/>
<path d="M362.782 412.555C362.777 412.617 362.785 412.679 362.804 412.738C362.823 412.798 362.854 412.852 362.895 412.9C362.992 412.965 363.11 412.992 363.226 412.975L372.348 412.796C372.569 413.895 372.58 415.026 372.381 416.129C372.364 416.311 372.297 416.484 372.187 416.63C371.994 416.797 371.748 416.89 371.493 416.894C367.64 417.391 363.844 418.264 360.161 419.5C359.792 419.668 359.383 419.73 358.981 419.68C358.235 419.514 357.895 418.655 357.739 417.909C357.215 415.392 357.409 412.786 357.111 410.232C356.965 408.99 356.715 407.673 357.229 406.53C357.701 405.473 361.101 402.866 361.819 404.547C362.291 405.661 362.258 407.338 362.399 408.537C362.569 409.871 362.697 411.211 362.782 412.555Z" fill="#C8E6EF"/>
<path d="M373.997 412.928C374.325 412.157 374.808 411.461 375.415 410.884C376.023 410.307 376.742 409.86 377.529 409.571C377.897 410.204 376.721 411.082 377.222 411.62C377.324 411.7 377.442 411.758 377.568 411.789C377.695 411.82 377.826 411.823 377.954 411.8L380.975 411.672C381.069 411.656 381.165 411.676 381.245 411.729C381.3 411.786 381.334 411.862 381.339 411.941C381.351 412.245 381.289 412.547 381.159 412.821C381.029 413.096 380.835 413.335 380.593 413.518C380.121 413.92 379.592 414.212 379.148 414.623C378.426 415.289 377.968 416.271 377.08 416.701C376.41 417.026 375.617 416.974 374.918 417.225C374.058 417.536 373.256 418.32 372.378 418.056C371.957 417.933 372.429 415.454 372.642 415.171C373.194 414.489 373.65 413.734 373.997 412.928Z" fill="#F4A982"/>
<path d="M361.367 397.951C361.901 398.427 362.476 398.854 363.086 399.226C363.316 399.395 363.594 399.486 363.879 399.486C364.2 399.423 364.486 399.243 364.682 398.981C365.23 398.385 365.682 397.708 366.023 396.974C366.062 396.864 366.125 396.764 366.207 396.681C366.49 396.431 366.948 396.681 367.307 396.549C367.437 396.496 367.55 396.408 367.633 396.294C367.717 396.181 367.767 396.047 367.779 395.907C367.804 395.628 367.783 395.348 367.718 395.076C367.603 394.461 367.568 393.834 367.614 393.211C367.713 392.215 368.11 391.223 367.907 390.246C367.661 389.401 367.168 388.649 366.49 388.088C366.036 387.618 365.506 387.227 364.923 386.931C364.231 386.649 363.489 386.507 362.741 386.516C361.829 386.42 360.909 386.616 360.116 387.078C359.384 387.587 358.978 388.437 358.605 389.249L355.428 396.171C355.33 396.351 355.279 396.552 355.281 396.757C355.314 396.931 355.392 397.094 355.508 397.229C356.145 398.132 356.984 398.874 357.958 399.396C358.506 399.689 359.474 400.09 360.074 399.712C360.673 399.335 360.947 398.433 361.367 397.951Z" fill="#F4A982"/>
<path d="M370.94 389.127C371.404 388.596 371.723 387.955 371.867 387.265C372.01 386.576 371.974 385.861 371.762 385.189C371.703 384.969 371.589 384.767 371.431 384.603C371.208 384.442 370.949 384.338 370.676 384.301C368.867 383.89 367.128 383.215 365.515 382.299C364.613 381.785 363.697 381.18 362.682 381.147C362.118 381.14 361.565 381.3 361.093 381.609C360.621 381.918 360.252 382.36 360.033 382.88C359.77 382.716 359.47 382.619 359.16 382.599C358.851 382.578 358.541 382.634 358.258 382.762C357.692 383.024 357.219 383.452 356.903 383.99C356.025 385.406 355.987 387.144 355.959 388.796L355.926 394.15C355.919 394.249 355.932 394.349 355.963 394.443C356.019 394.544 356.107 394.624 356.213 394.67C356.319 394.715 356.437 394.723 356.549 394.693C356.77 394.632 356.974 394.518 357.144 394.363C357.838 393.815 358.522 393.258 359.207 392.696C358.901 392.237 358.762 391.687 358.816 391.138C358.869 390.589 359.111 390.075 359.5 389.684C359.592 389.583 359.712 389.511 359.844 389.476C359.958 389.471 360.072 389.493 360.176 389.54C360.28 389.586 360.372 389.657 360.444 389.745C360.86 390.204 361.086 390.805 361.075 391.424C361.063 392.044 360.816 392.635 360.383 393.079C361.145 392.786 361.762 392.204 362.097 391.459C362.422 390.718 362.848 390.025 363.362 389.401C363.929 388.824 364.868 388.503 365.553 388.928C366.497 389.509 366.634 390.477 367.914 390.477C368.484 390.474 369.048 390.353 369.569 390.12C370.09 389.888 370.557 389.549 370.94 389.127Z" fill="#606161"/>
<path d="M370.94 389.127C371.404 388.596 371.723 387.955 371.867 387.265C372.01 386.576 371.974 385.861 371.762 385.189C371.703 384.969 371.589 384.767 371.431 384.603C371.208 384.442 370.949 384.338 370.676 384.301C368.867 383.89 367.128 383.215 365.515 382.299C364.613 381.785 363.697 381.18 362.682 381.147C362.118 381.14 361.565 381.3 361.093 381.609C360.621 381.918 360.252 382.36 360.033 382.88C359.77 382.716 359.47 382.619 359.16 382.599C358.851 382.578 358.541 382.634 358.258 382.762C357.692 383.024 357.219 383.452 356.903 383.99C356.025 385.406 355.987 387.144 355.959 388.796L355.926 394.15C355.919 394.249 355.932 394.349 355.963 394.443C356.019 394.544 356.107 394.624 356.213 394.67C356.319 394.715 356.437 394.723 356.549 394.693C356.77 394.632 356.974 394.518 357.144 394.363C357.838 393.815 358.522 393.258 359.207 392.696C358.901 392.237 358.762 391.687 358.816 391.138C358.869 390.589 359.111 390.075 359.5 389.684C359.592 389.583 359.712 389.511 359.844 389.476C359.958 389.471 360.072 389.493 360.176 389.54C360.28 389.586 360.372 389.657 360.444 389.745C360.86 390.204 361.086 390.805 361.075 391.424C361.063 392.044 360.816 392.635 360.383 393.079C361.145 392.786 361.762 392.204 362.097 391.459C362.422 390.718 362.848 390.025 363.362 389.401C363.929 388.824 364.868 388.503 365.553 388.928C366.497 389.509 366.634 390.477 367.914 390.477C368.484 390.474 369.048 390.353 369.569 390.12C370.09 389.888 370.557 389.549 370.94 389.127Z" fill="url(#paint21_linear_305_265)"/>
<path d="M357.571 424.67C357.731 426.087 357.986 427.532 357.613 428.92C357.184 430.497 355.98 431.795 354.615 432.81C351.896 434.793 348.613 435.854 345.248 435.837C343.382 435.837 341.291 435.365 340.356 433.84C339.737 432.843 339.77 431.621 339.822 430.468L340.092 424.472C340.285 420.119 340.488 415.733 341.598 411.502C342.707 407.272 344.813 403.159 348.283 400.241C349.399 399.252 350.715 398.514 352.141 398.079C357.49 396.61 363.355 399.892 361.461 405.293C359.138 411.918 356.759 417.489 357.571 424.67Z" fill="white"/>
<path d="M349.563 424.321C349.643 424.793 349.393 426.012 349.647 426.422C350.261 427.395 350.748 434.676 351.867 434.397C352.986 434.118 356.503 430.388 357.405 429.675C358.189 429.052 357.688 423.462 357.405 422.494C357.242 422.091 357.005 421.723 356.706 421.408C355.597 419.992 355.318 418.075 355.29 416.266C355.261 414.458 355.441 412.621 355.101 410.846C354.742 408.957 353.571 406.833 351.55 406.412C348.883 405.865 348.85 407.253 349.388 409.08C350.823 413.943 348.741 419.321 349.563 424.321Z" fill="url(#paint22_linear_305_265)"/>
<path d="M400.065 434.312C400.372 434.683 400.526 435.158 400.494 435.639C400.535 436.016 400.524 436.397 400.461 436.772C400.397 437.151 400.187 437.49 399.876 437.716C399.492 437.907 399.06 437.983 398.634 437.933L397.515 437.905C397.131 437.917 396.747 437.87 396.377 437.763C396.193 437.71 396.023 437.615 395.882 437.486C395.74 437.356 395.63 437.196 395.56 437.017C395.483 436.739 395.483 436.445 395.56 436.167C395.768 435.223 396.032 433.934 397.151 433.925C397.921 433.911 399.493 433.788 400.065 434.312Z" fill="#F4A982"/>
<path d="M402.865 425.832C401.882 427.868 400.778 429.843 399.56 431.748C399.155 432.272 398.902 432.898 398.828 433.556C398.867 434 398.962 434.436 399.111 434.855C399.297 435.542 399.346 436.259 399.258 436.965C399.18 437.364 399.137 437.768 399.13 438.174C399.129 438.377 399.177 438.578 399.27 438.759C399.363 438.939 399.498 439.095 399.664 439.213C399.929 439.348 400.226 439.411 400.523 439.397L404.078 439.548C404.295 439.569 404.514 439.555 404.725 439.506C405.122 439.347 405.447 439.048 405.637 438.665C407.313 435.927 406.76 432.433 407.341 429.274C407.582 427.966 408.026 426.682 408.059 425.35C408.098 424.961 408.054 424.567 407.929 424.196C407.805 423.825 407.602 423.484 407.336 423.197C406.751 422.678 405.66 422.725 405.33 423.429" fill="#606161"/>
<path d="M402.865 425.832C401.882 427.868 400.778 429.843 399.56 431.748C399.155 432.272 398.902 432.898 398.828 433.556C398.867 434 398.962 434.436 399.111 434.855C399.297 435.542 399.346 436.259 399.258 436.965C399.18 437.364 399.137 437.768 399.13 438.174C399.129 438.377 399.177 438.578 399.27 438.759C399.363 438.939 399.498 439.095 399.664 439.213C399.929 439.348 400.226 439.411 400.523 439.397C401.708 439.449 401.623 439.354 402.808 439.397C403.025 439.415 403.243 439.399 403.455 439.35C403.852 439.191 404.177 438.892 404.366 438.509C406.043 435.771 405.896 432.721 406.477 429.562C406.718 428.254 407.162 426.97 407.195 425.638C407.234 425.249 407.19 424.855 407.065 424.484C406.941 424.113 406.739 423.772 406.472 423.485C405.887 422.961 405.66 422.711 405.33 423.419" fill="url(#paint23_linear_305_265)"/>
<path d="M349.684 406.445C349.684 406.445 349.603 401.252 354.245 400.822C358.886 400.392 359.623 405.303 359.462 406.672C359.301 408.041 360.194 415.874 360.194 415.874L372.659 415.062L373.131 418.646C373.131 418.646 355.619 423.939 354.641 422.801C353.664 421.663 352.446 419.477 349.684 406.445Z" fill="white"/>
<path d="M344.826 404.198C344.826 404.198 348.075 404.491 350.19 403.508C352.305 402.526 358.004 401.417 359.709 401.851C361.739 402.371 361.555 400.907 361.555 400.907L353.637 398.452C353.637 398.452 346.696 401.157 346.106 402.29C345.748 402.97 345.319 403.609 344.826 404.198Z" fill="#C8E6EF"/>
<path d="M355.55 395.203C354.733 394.448 353.865 393.664 352.779 393.419C351.693 393.173 350.347 393.697 350.106 394.783C350.016 395.175 350.007 395.69 349.634 395.817C349.398 395.897 349.162 395.76 348.897 395.77C348.714 395.794 348.54 395.868 348.395 395.983C348.25 396.099 348.14 396.252 348.076 396.426C347.92 396.766 347.863 397.139 347.708 397.474C347.32 398.329 346.414 398.787 345.706 399.401C344.997 400.015 344.45 401.1 345.016 401.846C345.583 402.592 346.603 402.404 347.438 402.177C349.521 401.61 351.565 400.855 353.699 400.52C355.833 400.184 358.123 400.303 359.988 401.388C362.038 402.588 361.981 400.222 360.527 399.382C358.638 398.296 357.17 396.676 355.55 395.203Z" fill="white"/>
<path d="M355.13 397.819C354.595 397.748 354.078 397.58 353.605 397.323C352.543 396.837 351.456 396.412 350.347 396.048C350.285 396.033 350.227 396.004 350.177 395.963C350.119 395.902 350.083 395.825 350.073 395.742C349.978 395.269 350.111 394.382 350.668 394.301C351.107 394.235 351.957 394.868 352.316 395.09C353.44 395.785 354.4 396.716 355.13 397.819Z" fill="#C8E6EF"/>
<path d="M353.896 398.645C353.357 398.612 353.083 399.235 350.274 398.683C349.132 398.456 349.202 398.631 348.093 398.267C348.031 398.252 347.973 398.223 347.923 398.182C347.865 398.121 347.829 398.044 347.819 397.961C347.725 397.512 347.857 396.601 348.414 396.52C348.853 396.454 349.703 397.087 350.062 397.309C351.181 398.017 351.828 398.584 353.896 398.645Z" fill="#C8E6EF"/>
<path d="M352.277 297.881C356.11 297.881 359.217 294.774 359.217 290.941C359.217 287.107 356.11 284 352.277 284C348.443 284 345.336 287.107 345.336 290.941C345.336 294.774 348.443 297.881 352.277 297.881Z" fill="#ADEDFE"/>
<path opacity="0.51" d="M391.22 287H362.471V290.348H391.22V287Z" fill="#68E1FD"/>
<path d="M401.589 293.351H362.471V295.022H401.589V293.351Z" fill="#ADEDFE"/>
<path d="M420.354 361.345C420.354 372.795 432.271 382.068 446.964 382.068C449.433 382.077 451.895 381.803 454.301 381.251L465.916 387.195L461.233 378.815C468.65 375.16 473.561 368.725 473.561 361.345C473.561 349.89 461.643 340.622 446.945 340.622C432.247 340.622 420.354 349.895 420.354 361.345Z" fill="#8EE4FF"/>
<path d="M506 319.026C506 327.877 496.82 335.038 485.502 335.038C483.6 335.045 481.704 334.833 479.85 334.407L470.903 339L474.496 332.51C468.782 329.686 465 324.717 465 319.012C465 310.165 474.18 303 485.502 303C496.824 303 506 310.18 506 319.026Z" fill="#F8FCFF" fill-opacity="0.7"/>
<path d="M443 282.794C443 288.202 448.597 292.579 455.499 292.579C456.659 292.583 457.815 292.454 458.945 292.193L464.401 295L462.21 291.034C465.694 289.308 468 286.272 468 282.785C468 277.379 462.403 273 455.499 273C448.595 273 443 277.388 443 282.794Z" fill="#F8FCFF" fill-opacity="0.5"/>
</g>
<defs>
<linearGradient id="paint0_linear_305_265" x1="159.961" y1="258.222" x2="43.7978" y2="390.582" gradientUnits="userSpaceOnUse">
<stop stop-color="white" stop-opacity="0"/>
<stop offset="0.91" stop-color="white" stop-opacity="0.8"/>
<stop offset="1"/>
<stop offset="1" stop-color="white"/>
</linearGradient>
<linearGradient id="paint1_linear_305_265" x1="142.886" y1="273.687" x2="142.886" y2="376.868" gradientUnits="userSpaceOnUse">
<stop stop-color="#A0ECFE" stop-opacity="0.67"/>
<stop offset="0.487507" stop-color="#68E1FD" stop-opacity="0.65"/>
<stop offset="1" stop-color="#4595A7" stop-opacity="0.76"/>
</linearGradient>
<linearGradient id="paint2_linear_305_265" x1="4438.1" y1="11189.8" x2="4375.88" y2="14184.9" gradientUnits="userSpaceOnUse">
<stop stop-color="white" stop-opacity="0"/>
<stop offset="0.84" stop-color="white" stop-opacity="0.84"/>
<stop offset="0.97" stop-color="white"/>
</linearGradient>
<linearGradient id="paint3_linear_305_265" x1="483.322" y1="1034.01" x2="464.78" y2="1038.45" gradientUnits="userSpaceOnUse">
<stop stop-opacity="0"/>
<stop offset="0.91" stop-opacity="0.8"/>
<stop offset="1"/>
</linearGradient>
<linearGradient id="paint4_linear_305_265" x1="3389.9" y1="4565.68" x2="3099.99" y2="4735.61" gradientUnits="userSpaceOnUse">
<stop stop-opacity="0"/>
<stop offset="0.91" stop-opacity="0.8"/>
<stop offset="1"/>
</linearGradient>
<linearGradient id="paint5_linear_305_265" x1="79.7458" y1="233.261" x2="87.3117" y2="233.261" gradientUnits="userSpaceOnUse">
<stop stop-color="#ECC4D7"/>
<stop offset="0.42" stop-color="#EFD4D1"/>
<stop offset="1" stop-color="#F2EAC9"/>
</linearGradient>
<linearGradient id="paint6_linear_305_265" x1="1463.61" y1="2487.8" x2="1968.49" y2="2487.8" gradientUnits="userSpaceOnUse">
<stop stop-color="#ECC4D7"/>
<stop offset="0.42" stop-color="#EFD4D1"/>
<stop offset="1" stop-color="#F2EAC9"/>
</linearGradient>
<linearGradient id="paint7_linear_305_265" x1="1411.49" y1="2923.98" x2="1572.74" y2="2923.98" gradientUnits="userSpaceOnUse">
<stop stop-color="#ECC4D7"/>
<stop offset="0.42" stop-color="#EFD4D1"/>
<stop offset="1" stop-color="#F2EAC9"/>
</linearGradient>
<linearGradient id="paint8_linear_305_265" x1="2680.57" y1="6270.02" x2="3361.8" y2="6270.02" gradientUnits="userSpaceOnUse">
<stop stop-opacity="0"/>
<stop offset="0.91" stop-opacity="0.8"/>
<stop offset="1"/>
</linearGradient>
<linearGradient id="paint9_linear_305_265" x1="3301.17" y1="5773.77" x2="2653.46" y2="6926.01" gradientUnits="userSpaceOnUse">
<stop stop-color="white" stop-opacity="0"/>
<stop offset="0.84" stop-color="white" stop-opacity="0.84"/>
<stop offset="0.97" stop-color="white"/>
</linearGradient>
<linearGradient id="paint10_linear_305_265" x1="533.364" y1="690.983" x2="551.016" y2="690.983" gradientUnits="userSpaceOnUse">
<stop stop-color="#ECC4D7"/>
<stop offset="0.42" stop-color="#EFD4D1"/>
<stop offset="1" stop-color="#F2EAC9"/>
</linearGradient>
<linearGradient id="paint11_linear_305_265" x1="672.533" y1="998.976" x2="702.527" y2="998.976" gradientUnits="userSpaceOnUse">
<stop stop-color="#ECC4D7"/>
<stop offset="0.42" stop-color="#EFD4D1"/>
<stop offset="1" stop-color="#F2EAC9"/>
</linearGradient>
<linearGradient id="paint12_linear_305_265" x1="473.193" y1="794.575" x2="509.876" y2="941.51" gradientUnits="userSpaceOnUse">
<stop stop-color="#ECC4D7"/>
<stop offset="0.42" stop-color="#EFD4D1"/>
<stop offset="1" stop-color="#F2EAC9"/>
</linearGradient>
<linearGradient id="paint13_linear_305_265" x1="819.657" y1="1923.03" x2="1057.78" y2="2049.5" gradientUnits="userSpaceOnUse">
<stop stop-color="#ECC4D7"/>
<stop offset="0.42" stop-color="#EFD4D1"/>
<stop offset="1" stop-color="#F2EAC9"/>
</linearGradient>
<linearGradient id="paint14_linear_305_265" x1="384.498" y1="147.082" x2="477.999" y2="189.011" gradientUnits="userSpaceOnUse">
<stop offset="0.02" stop-color="white" stop-opacity="0"/>
<stop offset="0.32" stop-color="white" stop-opacity="0.39"/>
<stop offset="0.68" stop-color="white" stop-opacity="0.68"/>
<stop offset="1" stop-color="white"/>
</linearGradient>
<linearGradient id="paint15_linear_305_265" x1="292.96" y1="199.025" x2="366.143" y2="145.134" gradientUnits="userSpaceOnUse">
<stop offset="0.01"/>
<stop offset="0.13" stop-opacity="0.69"/>
<stop offset="1" stop-opacity="0"/>
</linearGradient>
<radialGradient id="paint16_radial_305_265" cx="0" cy="0" r="1" gradientUnits="userSpaceOnUse" gradientTransform="translate(391.357 26.7143) rotate(90) scale(29.0714 27.9443)">
<stop stop-color="white"/>
<stop offset="1" stop-color="white" stop-opacity="0"/>
</radialGradient>
<linearGradient id="paint17_linear_305_265" x1="18094.2" y1="11705.7" x2="18061.9" y2="6017.78" gradientUnits="userSpaceOnUse">
<stop offset="0.01"/>
<stop offset="0.13" stop-opacity="0.69"/>
<stop offset="1" stop-opacity="0"/>
</linearGradient>
<linearGradient id="paint18_linear_305_265" x1="382.599" y1="409.476" x2="350.7" y2="1097.08" gradientUnits="userSpaceOnUse">
<stop stop-color="#010101" stop-opacity="0"/>
<stop offset="0.95" stop-color="#010101"/>
</linearGradient>
<linearGradient id="paint19_linear_305_265" x1="21387" y1="123611" x2="59384.3" y2="4277.95" gradientUnits="userSpaceOnUse">
<stop stop-color="white" stop-opacity="0"/>
<stop offset="0.95" stop-color="white"/>
</linearGradient>
<linearGradient id="paint20_linear_305_265" x1="2077.62" y1="2369.94" x2="2095.06" y2="2245.99" gradientUnits="userSpaceOnUse">
<stop stop-color="white" stop-opacity="0"/>
<stop offset="0.95" stop-color="white"/>
</linearGradient>
<linearGradient id="paint21_linear_305_265" x1="4593.56" y1="4847.8" x2="5137.75" y2="4847.8" gradientUnits="userSpaceOnUse">
<stop stop-color="#010101" stop-opacity="0"/>
<stop offset="0.95" stop-color="#010101"/>
</linearGradient>
<linearGradient id="paint22_linear_305_265" x1="2450.17" y1="11707" x2="3700.07" y2="11585.2" gradientUnits="userSpaceOnUse">
<stop stop-color="#010101" stop-opacity="0"/>
<stop offset="0.95" stop-color="#010101"/>
</linearGradient>
<linearGradient id="paint23_linear_305_265" x1="3376.19" y1="7339.48" x2="3524.69" y2="7339.48" gradientUnits="userSpaceOnUse">
<stop stop-color="#010101" stop-opacity="0"/>
<stop offset="0.95" stop-color="#010101"/>
</linearGradient>
<clipPath id="clip0_305_265">
<rect width="319" height="240.429" fill="white" transform="translate(213)"/>
</clipPath>
<clipPath id="clip1_305_265">
<rect width="315" height="237.414" fill="white" transform="translate(230 234)"/>
</clipPath>
</defs>
</svg>
